# xmcd
#
# Track frame offsets: 
#        150
#        27755
#        53336
#        98691
#        117878
#        138791
#        181182
#        203887
#        236576
#        265546
#
# Disc length: 3758 seconds
#
# Revision: 0
# Processed by: cddbd v1.5.2PL0 Copyright (c) Steve Scherf et al.
# Submitted via: ExactAudioCopy v1.0b4
#
DISCID=720eac0a
DTITLE=Pinetop Perkins and Jimmy Rogers - Genuine Blues Legends
DYEAR=2015
DGENRE=Blues
TTITLE0=Kidney Stew
TTITLE1=High Heel Sneakers
TTITLE2=Had My Fun
TTITLE3=For You My Love
TTITLE4=Big Boss Man
TTITLE5=All In My Sleep
TTITLE6=The Last Time
TTITLE7=When I Lost My Baby
TTITLE8=Pinetop's Boogie Woogie
TTITLE9=Pine And Jimmy's Jump
EXTD=
EXTT0=
EXTT1=
EXTT2=
EXTT3=
EXTT4=
EXTT5=
EXTT6=
EXTT7=
EXTT8=
EXTT9=
PLAYORDER=
